<?xml version="1.0" standalone="no"?>
<!DOCTYPE svg PUBLIC "-//W3C//DTD SVG 20010904//EN"
 "http://www.w3.org/TR/2001/REC-SVG-20010904/DTD/svg10.dtd">
<svg version="1.0" xmlns="http://www.w3.org/2000/svg"
 width="200.000000pt" height="200.000000pt" viewBox="0 0 200.000000 200.000000"
 preserveAspectRatio="xMidYMid meet">

<g transform="translate(0.000000,200.000000) scale(0.100000,-0.100000)"
fill="#000000" stroke="none">
<path d="M0 1000 l0 -1000 1000 0 1000 0 0 1000 0 1000 -1000 0 -1000 0 0
-1000z m725 340 c33 -12 83 -30 110 -40 67 -23 198 -90 261 -132 28 -19 72
-44 98 -54 41 -17 46 -22 46 -51 0 -18 -4 -33 -8 -33 -5 0 -71 32 -148 71
-254 131 -288 147 -366 173 -42 14 -97 26 -122 26 -73 0 -81 -20 -81 -205 0
-82 -1 -210 -3 -282 l-2 -133 -36 0 -35 0 3 288 c3 320 8 343 70 382 42 27
125 23 213 -10z m853 -292 c-3 -324 -5 -333 -67 -375 -38 -26 -91 -30 -156
-12 -121 33 -351 133 -419 183 -16 11 -57 35 -90 51 -54 27 -61 34 -64 63 -2
17 0 32 4 32 9 0 275 -132 339 -168 86 -49 214 -94 281 -100 63 -5 63 -5 83
29 20 32 21 49 21 312 l0 277 36 0 35 0 -3 -292z"/>
</g>
</svg>
